# xmcd
#
# Track frame offsets: 
#        150
#        10322
#        21994
#        34764
#        46333
#        58436
#        69676
#        83306
#        96105
#        109179
#        123041
#        133018
#        143928
#        154877
#        176361
#        189420
#        199836
#        210376
#        222230
#        232940
#
# Disc length: 3267 seconds
#
# Revision: 0
# Processed by: cddbd v1.5.2PL0 Copyright (c) Steve Scherf et al.
# Submitted via: ExactAudioCopyFreeDBPlugin 1.0
#
DISCID=150cc114
DTITLE=Various Artist - The Very Best of Vee-Jay Rhythm and Blues [Rhin
DTITLE=o-Collectables box set]
DYEAR=2002
DGENRE=Rhythm and Blues
TTITLE0=Betty Everett - The Shoop Shoop Song (It's in His Kiss)
TTITLE1=Wade Flemons - Watch Over Her
TTITLE2=Birdlegs and Pauline - Spring
TTITLE3=Jerry Butler - Giving Up on Love
TTITLE4=Joe Simon - My Adorable One
TTITLE5=The Daylighters - Whisper of the Wind
TTITLE6=Jerry Butler - I Stand Accused
TTITLE7=Jerry Butler and Betty Everett - Let it Be Me
TTITLE8=Wade Flemons - I Knew You When
TTITLE9=Jerry Butler - I Don't Want to Hear Anymore
TTITLE10=Betty Everett - Getting Mighty Crowded
TTITLE11=Barrett Strong - Make Up Your Mind
TTITLE12=Barbara Greene - Young Boy
TTITLE13=Little Richard - I Don't Know What You've Got But It's Got Me
TTITLE14=The Dells - Stay in My Corner
TTITLE15=Fred Hughes - Oo Wee Baby, I Love You
TTITLE16=Joe Simon - Let's Do it Over
TTITLE17=The Dontells - Tell the World
TTITLE18=Maurice Williams and The Zodiacs - May I
TTITLE19=Fred Hughes - You Can't Take it Away
EXTD=
EXTT0=
EXTT1=
EXTT2=
EXTT3=
EXTT4=
EXTT5=
EXTT6=
EXTT7=
EXTT8=
EXTT9=
EXTT10=
EXTT11=
EXTT12=
EXTT13=
EXTT14=
EXTT15=
EXTT16=
EXTT17=
EXTT18=
EXTT19=
PLAYORDER=
